<?xml version="1.0" standalone="no"?>
<!DOCTYPE svg PUBLIC "-//W3C//DTD SVG 20010904//EN"
 "http://www.w3.org/TR/2001/REC-SVG-20010904/DTD/svg10.dtd">
<svg version="1.0" xmlns="http://www.w3.org/2000/svg"
 width="508.000000pt" height="364.000000pt" viewBox="0 0 508.000000 364.000000"
 preserveAspectRatio="xMidYMid meet">

<g transform="translate(0.000000,364.000000) scale(0.100000,-0.100000)"
fill="#000000" stroke="none">
<path d="M1135 2386 l-1130 -614 -3 -266 -2 -266 32 19 c66 38 1721 933 1734
938 12 4 14 -125 15 -823 1 -456 4 -893 8 -972 l6 -142 240 -129 c217 -117
240 -127 242 -107 2 11 0 565 -5 1231 -4 666 -4 1212 1 1213 9 5 9 532 0 531
-5 0 -516 -276 -1138 -613z"/>
<path d="M2660 2738 l1 -263 899 -480 c669 -357 897 -483 887 -490 -8 -5 -404
-221 -881 -480 l-866 -469 0 -264 0 -263 63 33 c34 18 547 296 1140 617 l1077
585 0 241 c0 163 4 245 11 252 8 8 5 15 -12 26 -37 22 -2307 1217 -2314 1217
-3 0 -5 -118 -5 -262z"/>
<path d="M2639 1983 c0 -37 -6 -282 -13 -543 -7 -261 -12 -476 -11 -478 2 -2
239 124 529 279 289 156 523 286 519 290 -5 4 -236 122 -515 264 l-508 257 -1
-69z"/>
<path d="M885 1260 c-269 -143 -492 -264 -496 -268 -4 -4 221 -129 499 -278
l507 -271 3 346 c3 356 -5 731 -17 731 -3 0 -226 -118 -496 -260z"/>
</g>
</svg>
